<!-- <svg xmlns="http://www.w3.org/2000/svg" fill="#377dff" width="24" height="24" viewBox="0 0 24 24"><path d="M12.23 15.5c-6.801 0-10.367-1.221-12.23-2.597v9.097h24v-8.949c-3.218 2.221-9.422 2.449-11.77 2.449zm1.77 2.532c0 1.087-.896 1.968-2 1.968s-2-.881-2-1.968v-1.032h4v1.032zm-14-8.541v-2.491h24v2.605c0 5.289-24 5.133-24-.114zm9-7.491c-1.104 0-2 .896-2 2v2h2v-1.5c0-.276.224-.5.5-.5h5c.276 0 .5.224.5.5v1.5h2v-2c0-1.104-.896-2-2-2h-6z"/></svg> -->

<!-- <svg xmlns="http://www.w3.org/2000/svg" fill="#377dff" width="24" height="24" viewBox="0 0 24 24"><path d="M9 6h-2v-2c0-1.104.896-2 2-2h6c1.104 0 2 .896 2 2v2h-2v-1.5c0-.276-.224-.5-.5-.5h-5c-.276 0-.5.224-.5.5v1.5zm7 6v2h8v8h-24v-8h8v-2h-8v-5h24v5h-8zm-2-1h-4v4h4v-4z"/></svg> -->

<svg xmlns="http://www.w3.org/2000/svg" fill="#377dff" width="24" height="24" viewBox="0 0 24 24"><path d="M12.399 2.276c-.208-.63.264-1.276.919-1.276.405 0 .783.257.918.664l5.691 14.286c.169.509-.106 1.057-.613 1.226-.507.169-1.055-.106-1.224-.614 0 0-3.593-1.203-7.854.211l2.801 4.354c.291.428.088 1.013-.396 1.173l-1.904.634c-.131.044-.267.066-.401.066-.357 0-.705-.152-.951-.429l-3.85-4.247c-2.096.661-4.468-.102-5.26-2.076-.182-.453-.275-.936-.275-1.421 0-1.407.786-2.842 2.492-3.68 8.541-4.194 9.907-8.871 9.907-8.871m6.067.913c1.518.641 2.789 1.865 3.459 3.516.669 1.651.607 3.42-.034 4.94l1.474.626c.415-.985.635-2.053.635-3.141 0-3.167-1.873-6.133-4.911-7.419l-.623 1.478zm-1.064 2.523c.874.368 1.608 1.073 1.992 2.024.386.951.351 1.968-.017 2.843l1.436.61c.524-1.246.576-2.691.028-4.042-.547-1.352-1.588-2.352-2.831-2.877l-.608 1.442z"/></svg>